<?xml version="1.0"?>
<svg width="700" height="700" xmlns="http://www.w3.org/2000/svg" xmlns:svg="http://www.w3.org/2000/svg" preserveAspectRatio="xMidYMid meet" version="1.0">
 <g class="layer">
  <title>Layer 1</title>
  <g fill="#F0F5FF" id="svg_1" transform="translate(1 8) translate(-5 -16) matrix(0.1 0 0 -0.1 -164 896)">
   <path d="m5152,8703c14,-52 4,-201 -21,-296c-44,-169 -123,-295 -326,-522c-196,-219 -296,-358 -385,-535c-102,-205 -143,-375 -144,-600c-1,-283 58,-465 245,-750c45,-69 100,-165 124,-214l42,-89l21,34c11,19 40,53 64,76c140,134 323,178 574,135c145,-25 364,-95 472,-151c191,-100 331,-272 388,-478c10,-35 20,-63 23,-63c3,0 34,39 69,88c84,116 156,265 188,387c24,88 27,120 27,265c1,141 -2,179 -22,260c-38,153 -77,253 -178,454c-163,325 -213,480 -215,658c-1,57 4,136 11,176c7,40 11,75 9,78c-7,6 -126,-73 -187,-124c-77,-66 -168,-184 -212,-277c-65,-135 -80,-211 -89,-455c-12,-309 -35,-380 -125,-380c-126,0 -197,228 -149,481c8,46 51,192 94,324c90,275 114,364 131,490c16,127 7,339 -21,440c-25,95 -101,257 -160,346c-82,122 -224,279 -253,279c-3,0 -1,-17 5,-37z" id="svg_2"/>
   <path d="m3685,6792c28,-74 33,-245 9,-359c-9,-43 -44,-148 -79,-234c-99,-244 -126,-349 -145,-559c-12,-129 -4,-274 22,-388c10,-47 13,-51 28,-37c26,24 162,83 246,107c64,18 105,22 214,23c149,0 232,-18 337,-75l53,-28l4,32c13,80 15,243 6,361c-35,447 -108,678 -280,883c-99,119 -231,216 -359,266c-54,22 -62,23 -56,8z" id="svg_3"/>
   <path d="m5044,5796c-83,-26 -169,-81 -244,-156c-217,-216 -264,-555 -118,-843c19,-38 51,-178 42,-186c-8,-8 -56,44 -81,89c-92,161 -198,279 -331,364c-138,89 -247,121 -398,114c-113,-5 -165,-23 -249,-88c-45,-34 -59,-40 -102,-40c-117,0 -261,-50 -345,-120c-99,-83 -157,-232 -144,-373c23,-247 137,-449 340,-602c61,-45 215,-123 316,-160c41,-15 194,-55 340,-90c219,-53 415,-110 513,-150c12,-5 3,14 -26,56c-24,35 -75,118 -112,184c-75,134 -173,270 -266,369c-34,36 -57,66 -52,66c13,0 113,-61 192,-117c90,-64 227,-198 303,-296c76,-98 133,-160 122,-132c-5,11 -9,117 -9,235c-1,145 -5,224 -13,243c-15,34 -6,53 14,33c8,-9 21,-13 29,-10c8,4 15,1 15,-5c0,-6 19,-16 43,-22l43,-10l-28,-56c-35,-69 -37,-137 -7,-226c21,-64 102,-222 119,-232c12,-8 13,-9 -5,49c-32,106 -13,318 33,360c18,16 19,14 31,-54c6,-39 25,-113 41,-164c17,-51 30,-102 30,-112c2,-60 87,203 97,299c3,31 9,57 13,57c13,0 50,-89 61,-146c8,-43 8,-74 -1,-117c-6,-32 -9,-62 -5,-65c10,-10 52,48 90,123c25,50 37,89 42,137c5,60 3,73 -21,122c-15,31 -45,71 -67,89c-43,37 -48,47 -21,47c36,0 90,21 116,45c35,33 47,24 40,-28c-4,-27 1,-71 14,-122c11,-44 23,-103 27,-131c13,-100 -29,-301 -97,-472c-17,-40 -28,-75 -26,-77c2,-3 54,18 115,45c132,59 341,132 443,154c84,18 263,46 268,42c1,-2 -41,-23 -95,-46c-330,-144 -658,-308 -677,-339c-2,-3 73,-6 167,-7c198,-1 274,-14 503,-88c262,-84 392,-81 579,11c238,118 443,372 539,666c21,63 24,83 14,100c-40,77 -325,369 -438,449c-197,139 -381,170 -576,97c-71,-27 -179,-99 -309,-206c-164,-134 -165,-135 -165,-123c0,19 39,88 120,214c42,66 91,148 107,181c132,263 158,555 68,753c-78,171 -218,266 -412,281c-90,7 -93,9 -136,48c-81,75 -161,103 -287,102c-47,0 -103,-6 -126,-13zm136,-1095c15,-29 12,-57 -10,-101c-11,-22 -22,-40 -24,-40c-3,0 -11,-3 -19,-6c-23,-9 -30,55 -11,102c28,67 45,79 64,45zm-196,-73l17,-53l-28,-22c-15,-13 -41,-23 -56,-23c-27,0 -28,2 -22,33c8,36 52,117 64,117c4,0 16,-24 25,-52zm346,-39c15,-27 16,-77 2,-91c-9,-9 -19,-6 -42,10c-16,12 -34,22 -40,22c-17,0 -11,13 22,47c37,39 44,40 58,12zm-647,-166c14,-36 14,-39 -4,-47c-27,-13 -49,10 -49,50c0,49 33,47 53,-3zm457,-43c15,-36 8,-92 -16,-128c-14,-22 -18,-23 -26,-9c-17,31 -22,116 -8,142c18,33 35,31 50,-5zm-216,-70c31,-78 22,-95 -29,-55c-42,31 -53,51 -36,68c6,6 11,27 11,46c0,31 2,33 14,21c8,-8 26,-44 40,-80zm-214,-54c0,-3 -4,-8 -10,-11c-5,-3 -10,-1 -10,4c0,6 5,11 10,11c6,0 10,-2 10,-4z" id="svg_4"/>
   <path d="m6881,5570c-195,-27 -377,-131 -508,-289c-59,-72 -127,-198 -166,-307c-28,-78 -91,-324 -84,-330c2,-2 21,5 43,15c91,44 154,56 299,56c157,0 236,-17 373,-80c41,-19 78,-35 81,-35c4,0 27,37 51,83c46,85 390,787 390,794c0,9 -128,63 -184,77c-75,20 -214,27 -295,16z" id="svg_5"/>
   <path d="m3460,3700c-192,-40 -354,-236 -406,-490c-34,-168 5,-309 107,-390c50,-40 128,-70 180,-70c21,0 32,-9 52,-43c14,-23 48,-64 76,-91c89,-83 203,-120 371,-120c280,-1 450,120 526,374c55,180 125,287 248,375c62,44 190,105 220,105c35,0 12,21 -58,54c-80,38 -245,89 -426,131c-63,15 -243,59 -400,98c-296,73 -396,86 -490,67z" id="svg_6"/>
   <path d="m4925,3252c-181,-13 -376,-190 -419,-382c-9,-38 -16,-93 -16,-122c1,-172 103,-360 263,-481c120,-92 200,-125 396,-167c69,-15 113,-31 160,-60c117,-70 182,-64 279,24c31,28 117,87 189,130c140,84 250,175 313,261c214,290 131,598 -198,734c-151,62 -182,66 -572,66c-195,0 -373,-1 -395,-3z" id="svg_7"/>
  </g>
 </g>
</svg>